
<svg xmlns="http://www.w3.org/2000/svg" version="1.1" xmlns:xlink="http://www.w3.org/1999/xlink" preserveAspectRatio="none" x="0px" y="0px" width="407px" height="80px" viewBox="0 0 407 80">
<defs>
<g id="Layer1_0_FILL">
<path fill="#FFFFFF" stroke="none" d="
M 122.2 20.2
Q 122.35 20.5 122.4 21.35 122.4 22.95 121.65 27 120.65 32.4 119.4 36.05
L 118.15 40
Q 117.55 42.1 115.55 48.1 113.25 55.05 112.9 57.2 112.55 59.35 113.15 62.7 113.55 64.95 113.95 65.8 114.35 66.7 115.15 67.05 115.65 67.3 115.95 67.3 116.2 67.35 116.75 67.1 118.35 66.4 120.7 64.65 121.05 64.4 121.25 64.75 121.4 65.1 121.7 66.8 122 68.95 122.15 69.1 122.55 69.75 123.6 68.4 124.05 67.85 125.8 64.6 127.5 61.35 127.5 61.1
L 130.7 53.1
Q 133.85 44 135.2 40.85 136.55 37.7 138.3 35.2 139.7 33.25 141.2 32 142.7 30.7 143.6 30.7 144.2 30.7 145.1 31.55 146 32.35 146.35 33.25 147.15 35.05 145.95 37.4 145 39.2 143.25 39.45 142.25 39.6 141.4 39.05 140.65 38.55 140.4 38.65 140.3 38.75 140.7 41 141.15 43.25 141.35 43.6 141.65 44.2 142.6 44.55 143.5 44.9 144.35 44.75 145.9 44.5 146.8 42.95 147.75 41.45 147.75 39.25 147.75 34.9 146.15 29.85 145.1 26.65 143.8 25.75 142.5 24.9 140.75 26.25 138.1 28.3 136.1 31.75 134.15 35.25 131.8 42 129.1 49.65 127.7 52.95 123.85 61.95 123.35 61.45 123 61.1 123.1 58.7 123.2 56.25 123.65 53.8
L 127.85 31.5
Q 128.45 28.75 128.45 27.65 128.45 26.65 128.1 24.8 127.75 22.95 127.6 23.1 127.45 23.25 125.45 33.6 123.4 43.95 122.6 48.8 121.5 55.6 121.5 57.6 121.5 58.25 118.65 60.1 115.8 61.95 114.95 61.85 114.45 61.8 114.35 61.65 114.25 61.5 114.3 60.95 114.45 59.6 116.65 53.25 119.65 44.1 120.7 40.15
L 121.4 37.85
Q 121.65 37.45 122.4 33.75 123.1 30.1 123.3 28.2 123.6 25.6 123.5 23.9 123.4 22.25 122.85 19.15 122.45 17 122.05 16.05 121.6 15.1 120.75 14.35 119.65 13.4 118.1 13.2 116.6 13.05 115.25 13.7 114.7 13.95 114.55 13.75 114.45 13.55 114.1 11.6 113.85 10 113.6 9.25
L 113.4 8.7 109.3 8.85
Q 95 9.4 82.45 12 81.05 12.25 80.7 12.2 80.3 12.15 80.3 11.6 80.3 11 80.05 11.05 79.8 11.05 79.65 11.7 79.5 12.6 79 12.65
L 66.95 15.45
Q 60.9 16.9 60.7 17.1 60.6 17.2 60.95 19.65 61.35 22.1 61.5 22.25 61.6 22.35 64.3 21.6 72.35 19.65 73.15 19.5
L 78.55 18.3
Q 78.6 18.3 78.5 18.8
L 78.1 20.95
Q 77.8 22.55 77.45 22.7
L 60.5 27.1
Q 56.35 28.3 55.85 28.5 55.25 28.7 55.25 29.15 55.25 29.55 55.6 31.6 55.95 33.6 56.05 33.7 56.2 33.85 63.5 31.9 76.65 28.4 76.8 28.55 76.9 28.65 76.7 29.95
L 74.05 46.3
Q 73.45 50.05 72.2 54 70.95 57.9 69.55 60.45
L 68.7 61.95 63 62
Q 58.35 62.1 56.9 62.3 55.3 62.55 53.4 63.55 52.25 64.15 51.25 65.2 50.25 66.25 50 67.2 49.65 68.65 50.05 72 50.45 75.4 51.15 76.8 52.05 78.55 53.95 79.1 55.8 79.6 58.05 78.8 60.45 77.9 63.35 75.3 66.3 72.65 68.35 69.5 71.3 65.05 73.05 59.75 74.75 54.45 76 45.95
L 77.8 34.5
Q 78.55 29.3 78.85 28.4 79 28 80.15 27.65 81.45 27.3 81.7 27.35 82 27.45 81.45 28 80.9 28.55 80.3 29.55
L 79.75 30.45 80.15 32.9
Q 80.6 35.35 80.75 35.5 80.9 35.75 81.25 34.95 81.55 34.2 82.6 33.15 83.65 32.1 84.15 32.05 85.55 32 85.95 32.4 86.35 32.8 85.5 35.05 84.65 37.25 82.1 42.4 77.45 51.65 76.6 54.6 75.75 57.6 76.55 62.05 77.2 65.5 78.2 66.65 78.65 67.15 80.15 67.85 81.65 68.6 82.2 68.6 82.65 68.6 82.65 68.85 82.65 69.1 81.05 71.05
L 77.85 75.05 78.75 79.85 78.95 80 81.25 77.2
Q 87.9 69.1 89.85 67.05 90.15 66.7 90.4 66.8 90.6 66.9 91.5 67.7 92.9 69 94.8 69.55 96.65 70.1 98.5 69.75 102 69.1 105 65.85 108 62.6 109.15 58.2 110.35 53.65 109.15 48.1
L 108.9 47 116.3 39.75 116.05 38.25
Q 115.55 35.1 115.25 34.8 115 34.55 109.3 40.4
L 107.7 41.9
Q 107.55 41.9 107.2 41.1 106.7 40.1 105.5 38.95 104.3 37.75 103.15 37.15 98.95 34.9 94.35 37.7 89.7 40.55 87.65 46.6 86.1 51.3 87.3 57.85
L 88.05 61.9
Q 88.15 62.3 87.75 62.9 87.3 63.5 85.9 65.2
L 83.4 68
Q 83.15 68.1 83.05 67.6
L 82.6 65.4
Q 82.35 64.05 82.05 63.75 81.75 63.45 80.5 63.1
L 78.4 62.2
Q 77.65 61.75 77.5 61.55 77.4 61.3 77.5 60.6 77.7 58.5 82.95 48 86.35 41.15 86.95 39.05 87.55 36.95 87.05 33.45 86.5 28.9 85.55 27.55 85.05 26.95 85.05 26.8 85.05 26.55 94.1 25.2 100.95 24.2 101.1 24.05 101.2 23.9 100.85 21.6 100.45 19.3 100.25 19.1 100.1 18.95 98.25 19.25
L 91.95 20.1
Q 87.95 20.6 83.75 21.4 79.95 22.15 79.95 22.05 79.85 21.95 80.65 17.85 80.8 17.7 86.8 16.7 92.8 15.7 95.9 15.35 101.5 14.65 107.7 14.3 113.9 13.9 113.9 14.25 113.9 14.4 113.25 14.85 112.15 15.55 110.35 17.4 108.6 19.2 107.4 20.85 106.25 22.45 104.8 25.35 103.65 27.7 103.55 28.35 103.45 29 103.9 31.3 104.3 33 104.5 32.9 104.7 32.85 105.8 30.65 107.15 27.95 108.4 26.2 109.65 24.4 111.6 22.45 113.8 20.25 115.6 19.35 116.85 18.75 117.4 18.6 117.95 18.5 118.9 18.55 120.3 18.7 121.35 19.4 122.05 19.95 122.2 20.2
M 92.9 45
Q 94.5 43.4 95.9 42.7 97.15 42 98.7 41.7 100.2 41.35 101.3 41.55 102.2 41.65 103.6 42.3 105 42.9 105.4 43.3 105.65 43.55 105.1 44.25 104.55 44.95 102.05 47.5
L 93.9 56.1
Q 89.5 60.95 89.3 60.95 89.05 60.95 88.35 59.45 87.85 58.45 87.75 57.95 87.65 57.45 87.75 56.2 87.85 54.5 88.6 52.2 89.35 49.9 90.35 48.2 91.3 46.6 92.9 45
M 107.3 48.55
Q 108.45 47.5 108.65 47.85 109.05 48.5 108.4 51.6 107.75 54.7 106.85 56.45 103.7 62.6 98.8 64.1 97.15 64.65 95 64.5 92.8 64.35 92.95 63.7 93.05 63.25 98.95 57.05 104.85 50.8 107.3 48.55
M 63.3 67.15
Q 65.05 67.15 65 67.35 65 67.55 63.45 69.05 61.85 70.6 60.8 71.4 59.6 72.35 58 73.1 54.65 74.7 52.45 73.6 51.3 73 51.15 72.65 51 72.25 51.5 71.35 52.4 69.9 54.65 68.8 56.85 67.7 59.6 67.4 61.55 67.2 63.3 67.15
M 208.15 37.35
L 208.45 44.15
Q 208.5 46.6 208.95 50 209.35 53.25 209.75 54.65 210.55 57.4 213.05 60.7 215.95 64.65 217 65.55 218.1 66.45 220.2 66.5
L 221.9 66.6 224.65 70.5 226.55 72.65 226.15 69.95
Q 224.05 56.65 224.05 53.1 224.05 51.3 223.75 50.4 223.4 49.55 222.2 47.9 220.55 45.7 220.4 45.4 219.8 44.45 219.65 44.9 219.5 45.35 219.6 47.8 219.7 49.95 220.1 53.35 220.55 56.8 220.9 58.65
L 221.1 59.8 220.3 60.15
Q 219.6 60.45 217.05 60.5 214.5 60.55 214.25 60.3 213.85 59.95 213.4 55.9 213 51.95 212.75 46.75
L 212.45 39.85 211.65 38.65
Q 209.3 35.2 208.25 34.15 208 33.9 208.15 37.35
M 209.1 19.4
L 202.95 19.85 201.3 17.95
Q 200.9 17.35 200.75 17.5 200.55 17.65 200.45 18.7
L 200.3 19.85 198.5 19.9
Q 196.75 20 192.35 19.7 188.05 19.4 186.15 19.1 184.35 18.8 182.4 18.2 180.45 17.55 180.2 17.2 179.9 16.9 179.35 14.2 178.75 11.6 178.6 9.95 178.45 8.45 178.05 7.75 177.65 6.95 175.55 4.1
L 174.35 2.45 174.25 3.85
Q 174.2 4.95 174.65 7.4 175.1 9.75 175.75 11.65 176.25 13.1 177.05 14.45 177.85 15.85 179.8 18.4 182.35 21.8 183.55 22.7 184.75 23.6 187.85 24.45 190.4 25.2 193.65 25.4
L 199.85 25.9
Q 200.1 25.9 200.1 36.2 200.1 50.35 201.5 60.85 202.05 64.7 202.85 66.4 203.7 68.2 207.05 72.4 208.2 73.85 209.05 74.35 209.9 74.9 211.5 75.1 213.35 75.35 216.05 75.1 218.75 74.9 219.15 74.45 219.45 74.2 216.95 70.85 215.6 69.1 215.15 68.9 214.75 68.7 212.95 69.05 211.8 69.3 209.25 69.2 206.65 69.15 206.4 68.9 206.2 68.7 205.6 63.7 205.05 58.75 204.7 54.05 204.55 51.75 204.6 39 204.6 26.2 204.75 26.05 204.9 25.9 209.1 25.65 213.3 25.4 213.3 25.15 213.3 24.9 212.6 23.95
L 209.1 19.4
M 251.55 30.7
L 249.8 28.9 246.95 32.45 247.4 33.05
Q 247.75 33.65 249.15 35.05 250.55 36.45 250.8 36.35 251.2 36.2 252.25 34.75 253.35 33.3 253.35 32.95 253.35 32.4 251.55 30.7
M 247.2 22.55
L 250 16.65 249.15 15.35
Q 246.75 11.95 245.9 11.2 245.7 11 245.35 11.5 245.1 11.95 244.15 13.8 239.6 23.35 237.25 29.75 236.6 31.5 236.4 31.7 236.25 31.9 235.65 31.1 232.4 26.2 228.7 23.2 224.95 20.15 222.1 20.1 220.35 20.05 219.35 21.2 218.4 22.35 218.05 24.95 217.55 28.4 218.5 32.5 219.45 36.55 221.45 39.4 226.1 46.1 228.15 47.9 228.8 48.5 230.15 49.35 231.5 50.15 232.05 50.3 232.35 50.4 232.5 50.95 232.6 51.55 232.8 53.65 233.3 59.2 234.8 63.1 236.3 67 239.45 70.9 240.25 71.9 240.4 71.9 240.5 71.9 240.1 71.05 238.55 67.5 237.85 64.1 237.35 61.85 237.2 57.75 237.05 53.7 237.35 51.35 238.9 40.25 247.2 22.55
M 235.55 31.8
L 236 32.8 234.95 36.55
Q 233.85 40.45 233.4 42.55
L 233 44.75 230.95 44.75
Q 227.95 44.7 225.9 43.5 224.85 42.85 224.4 42.3 224 41.75 223.5 40.3 222.2 36.65 222.4 32.1 222.75 24.7 227.85 26.25 229.85 26.8 232.45 28.65 235 30.5 235.55 31.8
M 280 10.55
Q 280.2 9.25 279.9 8.75 279.65 8.25 277.55 5.95 276 4.3 275.6 3.95 275.15 3.6 275.1 4.05
L 274.85 6.35
Q 274.55 8.55 274.55 12
L 274.55 15.6 279.45 20.9 279.6 16.45
Q 279.75 12.25 280 10.55
M 166 52.55
Q 166.25 52.3 163.25 49.05
L 161.4 47 158.1 47.15
Q 154.4 47.35 152.1 47.35 149.4 47.35 149.4 47.5 149.4 47.75 153.3 52
L 154.2 52.9 160 52.8
Q 165.85 52.7 166 52.55
M 178.6 25.3
Q 176.6 25.15 175.05 25.45 173.55 25.7 171.9 26.5 168.45 28.2 167.15 31.05 166.55 32.4 166.6 34 166.7 35.3 167.2 36.4 167.75 37.45 169.35 39.65 173.35 45.1 175.85 46.9 178.3 48.7 185.15 51.05 195.15 54.5 195.55 56.1 195.9 57.45 195.2 59.45 194.45 61.4 193.15 62.85 191.75 64.4 189.95 65.2 188.15 66.05 185.4 66.45 183.25 66.75 182.45 66.55 181.65 66.3 180.9 65.2 177.9 60.95 177.5 60.95 177.2 60.95 177.45 61.9 177.65 62.85 178.15 63.8 179.15 65.6 181.45 68.5 183.8 71.5 184.55 71.85 185.3 72.2 186.45 72.4 188.6 72.7 191.6 72 194.2 71.45 196.15 70 198.15 68.55 199.15 66.5 199.6 65.6 199.75 65 199.85 64.35 199.85 62.85 199.85 60.95 199.45 59.9 199.05 58.95 197.25 56.4 194.85 53.05 193.35 51.5 191.9 50 189.85 48.85 187 47.15 180.15 44.85 173.15 42.45 171.5 40.85 171 40.4 170.95 40.15 170.85 39.85 170.95 38.95 171.3 36.4 173.6 34.3 175.55 32.5 177.8 31.8 180 31.05 183.05 31.25 186.8 31.45 190.2 33.2 193.85 35.1 194.05 36.4 194.2 37.05 193.9 37.85 193.6 38.6 193.05 39.1 192.1 39.95 189.8 39.2 187.5 38.4 185.55 36.55 184.2 35.2 184.2 35.35 184.2 35.45 185.05 36.6
L 187.4 39.75
Q 189.35 42.35 191.6 43.9 193.9 45.45 195.75 45.45 196.65 45.45 196.95 45.35 197.3 45.2 197.8 44.6 199.05 43.15 198.05 40.75 197 38.4 192.95 33.3 189.8 29.4 186.4 27.5 182.95 25.55 178.6 25.3
M 248.25 45.3
L 249.1 43.1 248.05 41.6
Q 245.1 37.35 244.75 37.35 244.55 37.35 243.45 40.45 242.3 43.6 241.95 45.25 240.75 50.25 240.45 54.7 240.15 59.15 240.95 60.85 241.25 61.55 242.5 63.35 243.75 65.1 244.6 66.15 245.05 66.65 245.15 66.55 245.2 66.5 245 65.7 244.4 63.55 245.25 57.2 245.8 53.3 246.4 50.9 247.05 48.45 248.25 45.3
M 255.55 29.9
Q 255.25 29.35 253.7 27.75 252.2 26.15 252 26.15 251.7 26.15 251.45 26.6 251.3 26.9 251.6 27.35 251.85 27.75 253 29 254.8 30.9 255 30.9 255.3 30.9 255.5 30.5 255.7 30.15 255.55 29.9
M 266.1 24.1
Q 265.95 23.45 264.55 21.85 262.85 19.95 262.7 19.95 262.5 19.95 261.85 25.5 261.25 31 261.2 33.2 261.2 33.7 260.3 34.6 257.1 37.95 254.4 43.1 251.7 48.2 250.25 53.45 249.45 56.3 249.35 59.25 249.25 62.2 249.85 63.65 250.5 65.15 252.7 67.55 254.95 70 255.95 70.25 258.55 70.95 262.4 67.45
L 263.85 66.15 264.2 67.6
Q 264.65 69.05 266.25 70.95 267.95 72.85 268.1 72.85 268.3 72.85 268.1 72
L 266.45 64.45
Q 266.25 63.6 266.4 63.2 266.55 62.8 267.45 61.35 271.85 54.4 273.65 47.3 275.45 40.25 273.65 36.85 273.05 35.75 271.35 33.85 269.7 31.95 268.75 31.3 267.8 30.65 266.75 30.75 265.7 30.85 265.65 30.7 265.55 30.6 265.9 27.8 266.25 24.7 266.1 24.1
M 259 46
Q 260.55 43.3 260.8 43.3 261 43.3 261 44.75 261 46.25 261.4 50.55 261.75 54.9 262.05 56.75
L 262.4 58.9 261.4 60.2
Q 260.3 61.6 258.55 63.2 256.75 64.85 255.7 65.35 253.5 66.4 253.2 65.6 253 65.15 253.25 62.8 253.45 60.55 253.8 58.8 254.7 54.95 256.6 50.6 257.45 48.7 259 46
M 270.3 34.95
Q 270.6 34.95 270.65 36.15 270.75 37.35 270.55 39 269.8 45.45 266.35 52.4 265.55 54.05 265.4 54.05 265.1 54.05 265 52.45 264.95 51.05 264.9 45.8 264.9 38.35 265.25 37.95 265.95 37.1 267.75 36 269.55 34.95 270.3 34.95
M 271.25 7.2
L 271.25 5.3 268.95 2.75
Q 266.9 0.35 266.45 0.05 266.1 -0.15 266.25 4.5 266.4 9.15 266.8 10.8 267.15 12.3 267.65 13.1 268.15 13.9 270.15 16.05 272.3 18.4 272.3 18.2 272.45 18.2 272.05 16.95 271.75 16.05 271.5 12.9 271.25 9.8 271.25 7.2 Z"/>
</g>
</defs>

<g transform="matrix( 1, 0, 0, 1, 38.55,0) ">
<use xlink:href="#Layer1_0_FILL"/>
</g>
</svg>
